<svg xmlns="http://www.w3.org/2000/svg" preserveAspectRatio="xMidYMid meet" viewBox="0 0 390 300"><path class="map" d="M45 75l43-14 32 14 16-11 52 18 30-8 37 19-31 21-32-2-20 23-43-2-26 16-25-16-36-5-12-28zM172 161l22-8 31 20-4 29-31 8-22-22zM263 159l56-7 24 15-12 31-46 6-23-20z" style=";fill:#d5e4ea;"></path><circle class="node" cx="205" cy="157" r="8" style=";fill:#008078;stroke:#fff;stroke-width:3;"></circle><path class="route" d="M203 153C170 108 122 89 92 86M204 153C206 101 264 83 295 88M205 160C170 184 144 205 113 220M211 161C257 190 299 195 329 184" style=";fill:none;stroke:#7198b5;stroke-width:2;stroke-linecap:round;"></path><g><rect class="tag" height="18" rx="2" style=";fill:#062b5b;" width="78" x="49" y="71"></rect><text style=";fill:#fff;font:700 9px Inter,Arial,sans-serif;letter-spacing:.04em;" x="56" y="83">EUROPEAN UNION</text><rect class="tag" height="18" rx="2" style=";fill:#062b5b;" width="83" x="270" y="72"></rect><text style=";fill:#fff;font:700 9px Inter,Arial,sans-serif;letter-spacing:.04em;" x="277" y="84">UNITED KINGDOM</text><rect class="tag" height="18" rx="2" style=";fill:#062b5b;" width="36" x="69" y="211"></rect><text style=";fill:#fff;font:700 9px Inter,Arial,sans-serif;letter-spacing:.04em;" x="77" y="223">INDIA</text><rect class="tag" height="18" rx="2" style=";fill:#062b5b;" width="43" x="317" y="175"></rect><text style=";fill:#fff;font:700 9px Inter,Arial,sans-serif;letter-spacing:.04em;" x="324" y="187">BRAZIL</text></g></svg>